<?xml version="1.0" encoding="UTF-8"?>
<svg width="138px" height="101px" viewBox="0 0 138 101" version="1.1" xmlns="http://www.w3.org/2000/svg" xmlns:xlink="http://www.w3.org/1999/xlink">
    <!-- Generator: Sketch 46.2 (44496) - http://www.bohemiancoding.com/sketch -->
    <title>BOX</title>
    <desc>Created with Sketch.</desc>
    <defs></defs>
    <g id="2---Orders" stroke="none" stroke-width="1" fill="none" fill-rule="evenodd">
        <g id="Mobile---Your-Order-Empty-2" transform="translate(-118.000000, -234.000000)">
            <g id="BOX" transform="translate(118.000000, 235.000000)">
                <ellipse id="Oval" fill="#EEEEEE" cx="68.2519531" cy="84.2886285" rx="68.125" ry="15.625"></ellipse>
                <ellipse id="Oval" fill="#DDDDDD" cx="68.2519531" cy="79.2886285" rx="68.125" ry="15.625"></ellipse>
                <polygon id="Path-2" fill="#FFFFFF" points="8.64108807 13.5907068 11.3726182 19.0972918 11.3648961 20.7049002 20.9684252 31.9385021 20.843467 74.6735049 84.2351838 89.269044 116.25818 75.2273927 115.968249 32.4151685 132.17982 16.9533461 120.704024 20.4402415 123.630012 12.4597649 64.5065302 2.10789054 55.0827162 20.5729218 40.9785858 2.29462582 8.01980713 12.4050079"></polygon>
                <g id="Group-4" transform="translate(3.750000, 0.000000)">
                    <path d="M37.7797179,-7.10542736e-15 L0.722237413,11.7583229 L4.12941102,16.5325356 L0,15.7492431 L15.120822,32.1001024 L15.120822,76.5646115 L81.4505104,91.4337674 L114.061391,77.1989891 L114.061391,32.8804167 L114.058413,32.8804167 L134.023438,13.3814957 L120.594289,17.7313008 L123.557696,10.9035512 L59.503428,0.141469184 L51.0673971,17.0269332 L37.7797179,-7.10542736e-15 Z M71.1009227,22.7780278 L54.6026376,19.668684 L62.2107014,4.44957813 L117.548979,13.7448481 L115.029338,19.5301931 L92.5342487,26.8166007 L71.1009227,22.7780278 Z M10.1738681,17.6747131 L7.32661458,13.694217 L36.0061411,4.59402561 L48.0697396,20.057352 L38.3277248,23.0326723 L10.1738681,17.6747131 Z M71.5193737,41.6395929 L18.6679757,29.7859644 L11.2237183,21.7445582 L30.5216042,25.4182895 L48.8396298,28.9028989 L66.8419557,32.3309206 L75.6606979,42.568822 L71.5193737,41.6395929 Z M94.6458624,30.649671 L94.6577756,30.649671 L94.9496489,30.2282418 L95.0896289,30.0391198 L118.540752,22.44148 L119.158749,22.2404449 L110.408508,30.879 L103.10423,34.0628012 L87.2135182,41.0007478 L94.6458624,30.649671 Z M69.4792391,28.9654431 L53.8104102,25.9796988 L53.798497,24.7913576 L53.7746706,23.3841115 L89.7569852,30.1627192 L85.5099314,36.0910226 L81.0186571,42.348428 L69.4792391,28.9654431 Z M19.6016723,73.6652378 L19.6016723,33.9049514 L78.942783,46.9692582 L78.942783,86.9692977 L19.6016723,73.6652378 Z M83.4221441,46.9692582 L109.580541,35.4879171 L109.580541,74.9042101 L83.4221441,86.3215178 L83.4221441,46.9692582 Z" id="icon-Box" stroke="#FCFCFC" fill="#555555"></path>
                    <path d="M31.6402044,57.0362188 C30.7017889,57.0283896 30.4194604,58.27099 29.2836159,58.2611687 C28.0985397,58.2508742 27.5271009,57.1031418 27.3146011,55.9417183 C27.1397785,54.9849473 27.2339717,53.7919324 28.616728,53.8042689 C29.8186333,53.8146367 30.4247353,55.0644437 31.2975923,55.0723285 C31.9727693,55.0781712 32.425399,54.5874852 32.2784576,53.7846939 C32.0536498,52.5545167 30.2740261,51.3625171 27.9036226,51.3421295 C25.2036684,51.3186568 23.345676,52.7522875 23.9362046,55.9808301 C24.5294962,59.2262477 26.9187384,60.696678 29.6184414,60.7195985 C32.631117,60.7460829 33.2766545,59.0633781 33.1450352,58.345763 C33.0327568,57.7309504 32.4472519,57.0433558 31.6402044,57.0362188 Z M63.7033219,57.9996895 C62.7347645,57.8916874 62.4067209,58.3091286 62.3135324,58.9547663 L61.6710092,63.8275767 L60.2586134,59.2973798 C59.8436609,57.9222259 59.5794175,57.5397508 58.2607126,57.3924262 C56.94251,57.2457037 56.7046408,57.5554433 56.5531781,58.8842893 L56.0284591,63.1982308 L54.4008005,58.0722263 C54.1935754,57.3928626 53.7871631,56.8937671 52.8191081,56.7856135 C52.1745753,56.7137609 51.7277228,56.9340654 51.5026638,57.2988434 C51.4742802,57.0925182 51.3928973,56.8573423 51.2544961,56.5849832 C50.6114704,55.319562 48.2880379,53.1304946 44.9330014,54.3600704 C43.7542048,54.7923482 42.8702957,55.5147173 42.4623763,56.5025708 C42.0049741,55.6216105 41.1552257,54.9087213 39.8159239,54.5204461 C38.6481792,54.1817787 37.8057152,54.391921 37.1059224,55.0975655 L37.341531,52.2044741 C37.4487857,51.0580073 36.7798883,50.325234 35.7789285,50.0352275 C34.7772151,49.7445693 34.0113615,50.061089 33.9038557,51.2077572 L33.0759601,60.0873185 C32.969459,61.234186 33.6376028,61.9663074 34.6390651,62.2566647 C35.6397737,62.5468725 36.4063808,62.2310046 36.5136355,61.0840354 L36.7929498,58.0858291 C36.8878965,57.070047 37.3658957,56.5359158 38.2171511,56.782408 C39.0679042,57.0293029 39.4376439,57.6582683 39.3504838,58.5919516 L39.0493167,61.8191706 C38.9425644,62.9662395 39.6114618,63.6982592 40.6124216,63.988768 C41.6138838,64.2791253 42.3799886,63.9631577 42.4869921,62.8161387 L42.7479701,60.0180033 C42.8007183,60.1349689 42.8559783,60.252684 42.9167643,60.3725001 C44.4826322,63.4549382 47.0650333,64.1443332 49.4575408,63.2671117 C51.2019991,62.6278009 52.087164,61.8923684 52.4172171,61.20631 L53.7095479,64.5040004 C54.2804843,65.9638522 54.6668021,66.2253621 55.8518783,66.3574798 C57.1374272,66.5007385 57.8613334,66.4637514 58.0788569,64.9407859 L58.5777042,61.2961352 L59.7482118,65.1272814 C60.2319881,66.7285888 60.9767424,66.9293369 62.2620402,67.0722946 C63.4473675,67.2044621 63.7957568,67.0249076 64.1258098,65.6656817 L65.2279959,61.1465469 C65.4010603,60.459486 65.4666187,60.0630654 65.4286903,59.6217498 C65.3636342,58.8575586 64.7211109,58.1129371 63.7033219,57.9996895 Z M48.2762324,57.3304256 L45.4604834,58.3623047 C44.9023572,57.1619534 45.3969343,56.4997429 46.0680924,56.2538576 C46.8118419,55.9811797 47.6826896,56.1622325 48.2762324,57.3304256 Z M48.8039655,61.1973228 C47.8263656,61.5554786 46.9178407,61.0612628 46.3011891,60.0170903 L50.5609829,58.4558504 C50.9214289,58.3239004 51.1806486,58.1693568 51.3373861,57.9751411 C51.3381396,58.0001576 51.3381396,58.0250246 51.3401491,58.0502903 C51.3700397,58.4018465 51.4634794,58.7418964 51.6483493,59.2382348 C51.4087218,59.1369432 51.1552792,59.1039953 50.9317273,59.1859903 C50.012904,59.5226506 49.8981139,60.7964788 48.8039655,61.1973228 Z M69.3117112,65.7181469 L69.278304,65.7067469 L68.681747,60.6049497 C68.5847908,59.6764365 68.1731036,59.1335937 67.3926815,58.873775 C66.4296501,58.5528622 65.6303893,58.9293176 65.5186134,59.7375502 C65.4826944,59.996426 65.5296654,60.5357382 65.7878804,61.8051966 L66.9151847,67.4724517 C66.9784826,67.7643234 67.0118898,68.0289147 66.9917952,68.1746326 C66.9578856,68.4170779 66.7529212,68.5175801 66.0551379,68.2849566 C65.274967,68.0251877 64.7103101,68.0907534 64.6005436,68.8825554 C64.4822369,69.7394776 65.0727655,70.4941297 66.4344226,70.9476259 C67.8626428,71.4233699 69.4237383,71.4356697 70.4638825,69.5677595 L73.2419542,64.5582247 C73.7948056,63.5757637 74.1489721,62.8992615 74.1866493,62.6244077 C74.318771,61.6710094 73.6029026,60.9419792 72.7729976,60.6658131 C71.8928563,60.3726477 71.3894878,60.745762 70.8670294,62.0090455 L69.3117112,65.7181469 Z" id="Logo" fill="#128CED"></path>
                    <path d="M78.545775,20.8667264 C79.0429335,20.9594539 79.6311965,20.8602202 80.19161,20.5441158 L86.2084937,17.1601717 C88.276157,15.9919958 89.3428537,13.7065559 88.5911091,12.0553239 C87.8397372,10.4049105 85.5542973,10.0133405 83.487659,11.1809372 L82.9541318,11.4782493 L82.7607913,11.0564012 C82.0094194,9.4059878 79.7239795,9.01441775 77.6573413,10.1820145 C75.5896779,11.3501904 74.5233074,13.6349315 75.275052,15.2861635 L77.4232226,20.0698011 C77.626719,20.5167882 78.0424188,20.7872785 78.545775,20.8667264 Z" id="icon-Heart" fill="#128CED"></path>
                </g>
                <path d="M16.9055771,75.327057 L18.2499695,68.7242059 L19.503007,68.4445123 L19.5030068,75.9154068 L85.2307427,90.803548 L117.321194,76.7344076 L117.426765,68.614955 L121.141599,69.3956258 L125.335869,74.1106076 L123.963841,82.7110835 C123.963841,82.7110835 105.718687,90.7908466 105.19361,90.7908477 C104.668534,90.7908488 87.203653,92.4137063 87.203653,92.4137063 C87.203653,92.4137063 68.8965871,93.7897047 68.0849576,93.7897031 C67.2733282,93.7897015 15.6942872,86.2747047 15.6942872,86.2747048 C15.6942872,86.274705 16.9055771,75.327057 16.9055771,75.327057 Z" id="Path-3" fill="#DDDDDD"></path>
            </g>
        </g>
    </g>
</svg>